<?xml version="1.0" encoding="UTF-8"?>
<!-- Generator: Adobe Illustrator 25.4.1, SVG Export Plug-In . SVG Version: 6.00 Build 0) -->
<svg xmlns="http://www.w3.org/2000/svg" xmlns:xlink="http://www.w3.org/1999/xlink" version="1.1" id="Capa_1" x="0px" y="0px" viewBox="0 0 200 50" style="enable-background:new 0 0 200 50;" xml:space="preserve"> <style type="text/css"> .st0{clip-path:url(#SVGID_00000088823112508831247250000009397074089479200152_);} .st1{clip-path:url(#SVGID_00000078731990918190513410000009015716417668941220_);fill:#E52E2D;} .st2{clip-path:url(#SVGID_00000078731990918190513410000009015716417668941220_);fill:#38394E;} .st3{clip-path:url(#SVGID_00000078731990918190513410000009015716417668941220_);fill:#E3282A;} .st4{clip-path:url(#SVGID_00000078731990918190513410000009015716417668941220_);fill:#ED7C7C;} .st5{clip-path:url(#SVGID_00000078731990918190513410000009015716417668941220_);fill:#E95354;} </style> <g id="GHA_rojo_00000181808030388197466630000010324413085571855787_"> <g> <defs> <rect id="SVGID_1_" x="0.5" y="1.9" width="199" height="46.1"/> </defs> <clipPath id="SVGID_00000159448260877718513890000007865464804312977574_"> <use xlink:href="#SVGID_1_" style="overflow:visible;"/> </clipPath> <g style="clip-path:url(#SVGID_00000159448260877718513890000007865464804312977574_);"> <defs> <rect id="SVGID_00000065065224922618621170000014005296516802224259_" x="0.5" y="1.9" width="199" height="46.1"/> </defs> <clipPath id="SVGID_00000175291173813786939930000009811930514947102609_"> <use xlink:href="#SVGID_00000065065224922618621170000014005296516802224259_" style="overflow:visible;"/> </clipPath> <path style="clip-path:url(#SVGID_00000175291173813786939930000009811930514947102609_);fill:#E52E2D;" d="M73.8,26.5 c-1.2,0.6-2.5,1.1-3.9,1.4c-1.3,0.3-2.7,0.4-4.1,0.4c-1.5,0-2.9-0.2-4.1-0.7c-1.3-0.5-2.4-1.1-3.3-2c-0.9-0.9-1.6-1.9-2.2-3.2 c-0.5-1.2-0.8-2.6-0.8-4.2c0-1.5,0.3-2.9,0.8-4.2c0.5-1.2,1.2-2.3,2.2-3.2c0.9-0.9,2-1.6,3.3-2c1.3-0.5,2.6-0.7,4.1-0.7 c1.5,0,3,0.2,4.3,0.5c1.3,0.4,2.4,1,3.4,1.9l-3,3.2c-0.6-0.6-1.2-1-1.9-1.3c-0.7-0.3-1.6-0.5-2.7-0.5c-0.9,0-1.7,0.2-2.5,0.5 c-0.7,0.3-1.3,0.7-1.9,1.3c-0.5,0.5-0.9,1.2-1.2,2c-0.3,0.8-0.4,1.6-0.4,2.5c0,0.9,0.1,1.7,0.4,2.5c0.3,0.8,0.7,1.4,1.2,1.9 c0.5,0.5,1.1,1,1.9,1.3c0.7,0.3,1.6,0.5,2.5,0.5c0.9,0,1.7-0.1,2.4-0.3c0.7-0.2,1.2-0.4,1.6-0.6v-3.1h-3.5v-3.9h7.5V26.5z"/> <path style="clip-path:url(#SVGID_00000175291173813786939930000009811930514947102609_);fill:#E52E2D;" d="M89.5,25.6 c-0.6,0.8-1.5,1.5-2.5,1.9c-1,0.4-2,0.7-3.1,0.7c-1,0-2-0.2-2.9-0.5c-0.9-0.3-1.7-0.8-2.3-1.4c-0.6-0.6-1.2-1.3-1.6-2.2 c-0.4-0.9-0.6-1.8-0.6-2.9c0-1,0.2-2,0.6-2.8c0.4-0.9,0.9-1.6,1.6-2.2c0.6-0.6,1.4-1.1,2.3-1.4c0.9-0.3,1.8-0.5,2.9-0.5 c0.9,0,1.8,0.2,2.6,0.5c0.8,0.3,1.4,0.8,1.9,1.4c0.5,0.6,0.9,1.3,1.2,2.2c0.3,0.9,0.4,1.8,0.4,2.8v1.3h-9.4 c0.2,0.8,0.5,1.4,1.1,1.9c0.5,0.5,1.2,0.7,2,0.7c0.7,0,1.2-0.2,1.7-0.4c0.5-0.3,0.9-0.7,1.2-1.1L89.5,25.6z M86.1,19.8 c0-0.7-0.2-1.3-0.7-1.8c-0.5-0.5-1.1-0.7-1.8-0.7c-0.4,0-0.9,0.1-1.2,0.2c-0.3,0.2-0.6,0.3-0.9,0.5c-0.2,0.2-0.4,0.5-0.6,0.8 c-0.1,0.3-0.2,0.6-0.2,0.9L86.1,19.8L86.1,19.8z"/> <path style="clip-path:url(#SVGID_00000175291173813786939930000009811930514947102609_);fill:#E52E2D;" d="M105.1,25.6 c-0.6,0.8-1.5,1.5-2.5,1.9c-1,0.4-2,0.7-3.1,0.7c-1,0-2-0.2-2.9-0.5c-0.9-0.3-1.7-0.8-2.3-1.4c-0.6-0.6-1.2-1.3-1.6-2.2 c-0.4-0.9-0.6-1.8-0.6-2.9c0-1,0.2-2,0.6-2.8c0.4-0.9,0.9-1.6,1.6-2.2c0.6-0.6,1.4-1.1,2.3-1.4c0.9-0.3,1.8-0.5,2.9-0.5 c0.9,0,1.8,0.2,2.6,0.5c0.8,0.3,1.4,0.8,1.9,1.4c0.5,0.6,0.9,1.3,1.2,2.2c0.3,0.9,0.4,1.8,0.4,2.8v1.3h-9.4 c0.2,0.8,0.5,1.4,1.1,1.9c0.5,0.5,1.2,0.7,2,0.7c0.7,0,1.2-0.2,1.7-0.4c0.5-0.3,0.9-0.7,1.2-1.1L105.1,25.6z M101.7,19.8 c0-0.7-0.2-1.3-0.7-1.8c-0.5-0.5-1.1-0.7-1.8-0.7c-0.4,0-0.9,0.1-1.2,0.2c-0.3,0.2-0.6,0.3-0.9,0.5c-0.2,0.2-0.4,0.5-0.6,0.8 c-0.1,0.3-0.2,0.6-0.2,0.9L101.7,19.8L101.7,19.8z"/> <polygon style="clip-path:url(#SVGID_00000175291173813786939930000009811930514947102609_);fill:#E52E2D;" points="108.2,7.4 112.3,7.4 112.3,19.9 116.8,14.7 121.8,14.7 116.5,20.6 121.9,27.9 116.8,27.9 112.3,21.2 112.3,21.2 112.3,27.9 108.2,27.9 "/> <path style="clip-path:url(#SVGID_00000175291173813786939930000009811930514947102609_);fill:#E52E2D;" d="M130.7,18.6 c-0.6-0.8-1.4-1.1-2.4-1.1c-0.3,0-0.7,0.1-1,0.2c-0.3,0.2-0.5,0.4-0.5,0.8c0,0.3,0.2,0.6,0.5,0.7c0.3,0.2,0.8,0.3,1.3,0.4 c0.5,0.1,1.1,0.2,1.7,0.4c0.6,0.1,1.1,0.3,1.7,0.6c0.5,0.3,0.9,0.7,1.3,1.2c0.3,0.5,0.5,1.2,0.5,2c0,0.9-0.2,1.6-0.5,2.1 c-0.4,0.5-0.9,1-1.4,1.3c-0.6,0.3-1.2,0.6-1.9,0.7c-0.7,0.1-1.4,0.2-2.2,0.2c-0.9,0-1.9-0.1-2.8-0.4c-0.9-0.3-1.7-0.7-2.4-1.4 l2.5-2.7c0.4,0.5,0.8,0.8,1.3,1.1c0.5,0.2,1,0.4,1.6,0.4c0.5,0,0.9-0.1,1.3-0.2c0.4-0.1,0.6-0.4,0.6-0.8c0-0.3-0.2-0.6-0.5-0.8 c-0.3-0.2-0.8-0.3-1.3-0.4c-0.5-0.1-1.1-0.2-1.7-0.4c-0.6-0.1-1.1-0.3-1.7-0.6c-0.5-0.3-0.9-0.6-1.3-1.1c-0.3-0.5-0.5-1.2-0.5-2 c0-0.8,0.2-1.5,0.5-2c0.3-0.6,0.7-1,1.2-1.4c0.5-0.4,1.1-0.6,1.8-0.8c0.7-0.2,1.3-0.3,2-0.3c0.9,0,1.7,0.1,2.6,0.4 c0.9,0.3,1.6,0.7,2.3,1.3L130.7,18.6z"/> <polygon style="clip-path:url(#SVGID_00000175291173813786939930000009811930514947102609_);fill:#E52E2D;" points="136.3,8.7 140.6,8.7 140.6,15.8 148.8,15.8 148.8,8.7 153,8.7 153,27.9 148.8,27.9 148.8,19.6 140.6,19.6 140.6,27.9 136.3,27.9 "/> <path style="clip-path:url(#SVGID_00000175291173813786939930000009811930514947102609_);fill:#E52E2D;" d="M169.1,27.9h-3.9 v-1.8h-0.1c-0.2,0.3-0.3,0.5-0.5,0.8c-0.2,0.3-0.5,0.5-0.8,0.7c-0.3,0.2-0.7,0.4-1.1,0.5c-0.4,0.1-0.9,0.2-1.3,0.2 c-1,0-1.9-0.2-2.5-0.5c-0.6-0.3-1.1-0.8-1.5-1.3c-0.4-0.6-0.6-1.2-0.7-2c-0.1-0.8-0.2-1.6-0.2-2.5v-7.3h4.1v6.5 c0,0.4,0,0.8,0.1,1.2c0,0.4,0.1,0.8,0.2,1.1c0.1,0.3,0.3,0.6,0.6,0.8c0.3,0.2,0.7,0.3,1.2,0.3c0.5,0,1-0.1,1.3-0.3 c0.3-0.2,0.6-0.4,0.8-0.8c0.2-0.3,0.3-0.7,0.3-1.1c0.1-0.4,0.1-0.8,0.1-1.2v-6.6h4.1V27.9z"/> <path style="clip-path:url(#SVGID_00000175291173813786939930000009811930514947102609_);fill:#E52E2D;" d="M172.4,7.4h4.1v8.7 h0.1c0.5-0.6,1.1-1.1,1.8-1.4c0.7-0.3,1.5-0.4,2.4-0.4c0.9,0,1.8,0.2,2.5,0.6c0.8,0.4,1.4,0.9,1.9,1.6c0.5,0.6,0.9,1.4,1.2,2.2 c0.3,0.8,0.4,1.7,0.4,2.6c0,1-0.2,1.9-0.5,2.7c-0.3,0.8-0.8,1.6-1.3,2.2c-0.6,0.6-1.2,1.1-2,1.4c-0.8,0.3-1.7,0.5-2.7,0.5 c-0.5,0-0.9-0.1-1.3-0.2c-0.4-0.1-0.8-0.3-1.1-0.5c-0.4-0.2-0.6-0.4-0.9-0.7c-0.3-0.2-0.5-0.5-0.6-0.7h-0.1v1.7h-3.7V7.4z M176.1,21.3c0,1,0.3,1.8,0.9,2.4c0.6,0.6,1.4,0.9,2.4,0.9c1,0,1.8-0.3,2.4-0.9c0.6-0.6,0.9-1.4,0.9-2.4c0-1-0.3-1.8-0.9-2.4 c-0.6-0.6-1.4-0.9-2.4-0.9c-1,0-1.8,0.3-2.4,0.9C176.4,19.5,176.1,20.3,176.1,21.3"/> <path style="clip-path:url(#SVGID_00000175291173813786939930000009811930514947102609_);fill:#E52E2D;" d="M196.5,18.6 c-0.6-0.8-1.4-1.1-2.4-1.1c-0.3,0-0.7,0.1-1,0.2c-0.3,0.2-0.5,0.4-0.5,0.8c0,0.3,0.2,0.6,0.5,0.7c0.3,0.2,0.8,0.3,1.3,0.4 c0.5,0.1,1.1,0.2,1.7,0.4c0.6,0.1,1.1,0.3,1.7,0.6c0.5,0.3,0.9,0.7,1.3,1.2c0.3,0.5,0.5,1.2,0.5,2c0,0.9-0.2,1.6-0.5,2.1 c-0.4,0.5-0.9,1-1.4,1.3c-0.6,0.3-1.2,0.6-1.9,0.7c-0.7,0.1-1.4,0.2-2.2,0.2c-0.9,0-1.9-0.1-2.8-0.4c-0.9-0.3-1.7-0.7-2.4-1.4 l2.5-2.7c0.4,0.5,0.8,0.8,1.3,1.1c0.5,0.2,1,0.4,1.6,0.4c0.5,0,0.9-0.1,1.3-0.2c0.4-0.1,0.6-0.4,0.6-0.8c0-0.3-0.2-0.6-0.5-0.8 c-0.3-0.2-0.8-0.3-1.3-0.4c-0.5-0.1-1.1-0.2-1.7-0.4c-0.6-0.1-1.1-0.3-1.7-0.6c-0.5-0.3-0.9-0.6-1.3-1.1c-0.3-0.5-0.5-1.2-0.5-2 c0-0.8,0.2-1.5,0.5-2c0.3-0.6,0.7-1,1.2-1.4c0.5-0.4,1.1-0.6,1.8-0.8c0.7-0.2,1.3-0.3,2-0.3c0.9,0,1.7,0.1,2.6,0.4 c0.9,0.3,1.6,0.7,2.3,1.3L196.5,18.6z"/> <rect x="110.7" y="44.6" style="clip-path:url(#SVGID_00000175291173813786939930000009811930514947102609_);fill:#38394E;" width="10" height="1"/> <path style="clip-path:url(#SVGID_00000175291173813786939930000009811930514947102609_);fill:#38394E;" d="M59.4,44.2L59.4,44.2 c-0.3,0.3-0.6,0.6-1,0.7c-0.4,0.1-0.8,0.2-1.1,0.2c-0.3,0-0.6-0.1-0.8-0.1c-0.3-0.1-0.5-0.2-0.6-0.4c-0.2-0.2-0.3-0.4-0.4-0.6 c-0.1-0.2-0.1-0.5-0.1-0.8c0.1-0.5,0.3-0.9,0.6-1.2c0.3-0.3,0.7-0.5,1.1-0.6c0.4-0.1,0.9-0.2,1.4-0.3c0.5,0,0.9,0,1.3,0 c0.1-0.3,0-0.6-0.3-0.8C59.4,40,59.2,40,58.8,40c-0.3,0-0.6,0.1-0.9,0.2c-0.3,0.1-0.5,0.3-0.8,0.5l-0.9-1 c0.4-0.3,0.9-0.6,1.4-0.8c0.5-0.2,1-0.3,1.5-0.3c0.6,0,1,0.1,1.3,0.2c0.3,0.1,0.6,0.3,0.8,0.6c0.2,0.3,0.3,0.6,0.3,1 c0,0.4,0,0.9-0.1,1.4L61.1,45h-1.8L59.4,44.2z M59.2,42.3c-0.2,0-0.3,0-0.5,0c-0.2,0-0.4,0.1-0.6,0.1c-0.2,0.1-0.4,0.2-0.5,0.3 c-0.2,0.1-0.3,0.3-0.3,0.5c0,0.1,0,0.2,0,0.3c0.1,0.1,0.1,0.2,0.2,0.2c0.1,0.1,0.2,0.1,0.3,0.1c0.1,0,0.2,0,0.3,0 c0.2,0,0.4,0,0.5-0.1c0.2-0.1,0.3-0.1,0.5-0.2c0.2-0.1,0.3-0.2,0.4-0.4c0.1-0.2,0.2-0.3,0.2-0.5l0.1-0.4L59.2,42.3L59.2,42.3z"/> <path style="clip-path:url(#SVGID_00000175291173813786939930000009811930514947102609_);fill:#38394E;" d="M67,40.9 c-0.1-0.1-0.2-0.3-0.3-0.3c-0.2-0.1-0.3-0.1-0.5-0.1c-0.5,0-0.9,0.2-1.2,0.4c-0.3,0.3-0.5,0.7-0.6,1.1c-0.1,0.5,0,0.8,0.2,1.1 c0.2,0.3,0.6,0.4,1.1,0.4c0.2,0,0.4-0.1,0.6-0.1c0.2-0.1,0.3-0.2,0.4-0.3l1.1,1.3c-0.3,0.3-0.7,0.5-1.1,0.6 c-0.4,0.1-0.8,0.2-1.2,0.2c-0.5,0-0.9-0.1-1.3-0.2c-0.4-0.2-0.7-0.4-1-0.6c-0.3-0.3-0.5-0.6-0.6-1c-0.1-0.4-0.2-0.8-0.1-1.3 c0.1-0.5,0.2-0.9,0.4-1.3c0.2-0.4,0.5-0.7,0.9-1c0.3-0.3,0.8-0.5,1.2-0.6c0.4-0.2,0.9-0.2,1.4-0.2c0.4,0,0.7,0.1,1.1,0.2 c0.4,0.1,0.7,0.3,1,0.6L67,40.9z"/> <path style="clip-path:url(#SVGID_00000175291173813786939930000009811930514947102609_);fill:#38394E;" d="M72.3,44.2L72.3,44.2 c-0.3,0.3-0.6,0.6-1,0.7c-0.4,0.1-0.8,0.2-1.1,0.2c-0.3,0-0.6-0.1-0.8-0.1c-0.3-0.1-0.5-0.2-0.6-0.4c-0.2-0.2-0.3-0.4-0.4-0.6 c-0.1-0.2-0.1-0.5-0.1-0.8c0.1-0.5,0.3-0.9,0.6-1.2c0.3-0.3,0.7-0.5,1.1-0.6c0.4-0.1,0.9-0.2,1.4-0.3c0.5,0,0.9,0,1.3,0 c0.1-0.3,0-0.6-0.3-0.8C72.3,40,72.1,40,71.7,40c-0.3,0-0.6,0.1-0.9,0.2c-0.3,0.1-0.5,0.3-0.8,0.5l-0.9-1 c0.4-0.3,0.9-0.6,1.4-0.8c0.5-0.2,1-0.3,1.5-0.3c0.6,0,1,0.1,1.3,0.2c0.3,0.1,0.6,0.3,0.8,0.6c0.2,0.3,0.3,0.6,0.3,1 c0,0.4,0,0.9-0.1,1.4L74,45h-1.7L72.3,44.2z M72.1,42.3c-0.2,0-0.3,0-0.5,0c-0.2,0-0.4,0.1-0.6,0.1c-0.2,0.1-0.4,0.2-0.5,0.3 c-0.2,0.1-0.3,0.3-0.3,0.5c0,0.1,0,0.2,0,0.3c0.1,0.1,0.1,0.2,0.2,0.2c0.1,0.1,0.2,0.1,0.3,0.1c0.1,0,0.2,0,0.3,0 c0.2,0,0.4,0,0.5-0.1c0.2-0.1,0.3-0.1,0.5-0.2c0.2-0.1,0.3-0.2,0.4-0.4c0.1-0.2,0.2-0.3,0.2-0.5l0.1-0.4L72.1,42.3L72.1,42.3z"/> <path style="clip-path:url(#SVGID_00000175291173813786939930000009811930514947102609_);fill:#38394E;" d="M81.7,45h-1.7 l0.1-0.8h0c-0.1,0.1-0.2,0.2-0.3,0.3c-0.1,0.1-0.3,0.2-0.5,0.3C79,45,78.8,45,78.6,45.1c-0.2,0.1-0.4,0.1-0.6,0.1 c-0.5,0-0.9-0.1-1.2-0.2c-0.4-0.2-0.6-0.4-0.9-0.6c-0.2-0.3-0.4-0.6-0.5-1c-0.1-0.4-0.1-0.8,0-1.3c0.1-0.4,0.2-0.9,0.4-1.2 c0.2-0.4,0.4-0.8,0.7-1c0.3-0.3,0.6-0.5,1-0.7c0.4-0.2,0.8-0.3,1.2-0.3c0.4,0,0.8,0.1,1.1,0.2c0.3,0.1,0.6,0.3,0.8,0.6h0l0.6-4.1 H83L81.7,45z M80.3,41.9c0.1-0.5,0-0.8-0.2-1.1c-0.2-0.3-0.6-0.4-1.1-0.4s-0.9,0.2-1.2,0.4c-0.3,0.3-0.5,0.7-0.6,1.1 c-0.1,0.5,0,0.8,0.2,1.1c0.2,0.3,0.6,0.4,1.1,0.4s0.9-0.2,1.2-0.4C80.1,42.8,80.2,42.4,80.3,41.9"/> <path style="clip-path:url(#SVGID_00000175291173813786939930000009811930514947102609_);fill:#38394E;" d="M89.1,44 c-0.4,0.4-0.8,0.7-1.3,0.9c-0.5,0.2-1,0.3-1.5,0.3c-0.5,0-0.9-0.1-1.3-0.2c-0.4-0.2-0.7-0.4-1-0.6c-0.3-0.3-0.5-0.6-0.6-1 c-0.1-0.4-0.2-0.8-0.1-1.3c0.1-0.5,0.2-0.9,0.4-1.3c0.2-0.4,0.5-0.7,0.9-1c0.3-0.3,0.8-0.5,1.2-0.6c0.4-0.2,0.9-0.2,1.4-0.2 c0.4,0,0.8,0.1,1.2,0.2c0.3,0.2,0.6,0.4,0.8,0.6c0.2,0.3,0.4,0.6,0.4,1c0.1,0.4,0.1,0.8,0,1.3l-0.1,0.6h-4.4 c0,0.4,0.2,0.6,0.4,0.9c0.2,0.2,0.5,0.3,0.9,0.3c0.3,0,0.6-0.1,0.8-0.2s0.4-0.3,0.6-0.5L89.1,44z M87.9,41.2 c0.1-0.3,0-0.6-0.2-0.8c-0.2-0.2-0.4-0.3-0.8-0.3c-0.2,0-0.4,0-0.6,0.1c-0.2,0.1-0.3,0.2-0.4,0.3c-0.1,0.1-0.2,0.2-0.3,0.4 c-0.1,0.1-0.2,0.3-0.2,0.4H87.9z"/> <path style="clip-path:url(#SVGID_00000175291173813786939930000009811930514947102609_);fill:#38394E;" d="M91.3,38.9h1.8 L93,39.7h0c0.1-0.1,0.2-0.2,0.3-0.4c0.1-0.1,0.3-0.2,0.4-0.3c0.2-0.1,0.3-0.2,0.5-0.2c0.2-0.1,0.4-0.1,0.6-0.1 c0.4,0,0.8,0.1,1.1,0.3c0.3,0.2,0.5,0.5,0.6,0.8c0.3-0.4,0.6-0.7,0.9-0.9c0.3-0.2,0.7-0.3,1.2-0.3c0.4,0,0.8,0.1,1,0.2 c0.3,0.1,0.5,0.3,0.6,0.6c0.1,0.2,0.2,0.5,0.2,0.9c0,0.3,0,0.7,0,1l-0.5,3.6h-1.9l0.5-3.6c0.1-0.3,0-0.5-0.1-0.8 c-0.1-0.2-0.3-0.3-0.6-0.3c-0.2,0-0.4,0-0.6,0.1c-0.2,0.1-0.3,0.2-0.4,0.3c-0.1,0.1-0.2,0.3-0.3,0.4c0,0.2-0.1,0.3-0.1,0.5 L96.2,45h-1.9l0.5-3.3c0-0.1,0-0.2,0.1-0.4c0-0.2,0-0.3,0-0.5c0-0.2-0.1-0.3-0.2-0.4c-0.1-0.1-0.3-0.2-0.5-0.2 c-0.2,0-0.4,0.1-0.6,0.1c-0.2,0.1-0.3,0.2-0.4,0.4c-0.1,0.2-0.2,0.3-0.2,0.5c-0.1,0.2-0.1,0.4-0.1,0.6l-0.4,3.1h-1.9L91.3,38.9z"/> <path style="clip-path:url(#SVGID_00000175291173813786939930000009811930514947102609_);fill:#38394E;" d="M104.8,46 c-0.2,0.3-0.3,0.6-0.5,0.9c-0.2,0.3-0.3,0.5-0.5,0.6c-0.2,0.2-0.5,0.3-0.8,0.4c-0.3,0.1-0.7,0.1-1.1,0.1c-0.5,0-1-0.1-1.4-0.2 l0.5-1.6c0.3,0.1,0.5,0.2,0.9,0.2c0.2,0,0.4,0,0.5-0.1c0.2-0.1,0.3-0.1,0.4-0.2c0.1-0.1,0.2-0.2,0.3-0.3c0.1-0.1,0.2-0.3,0.3-0.4 l0.2-0.4l-1.8-6.2h2l1,4.1h0l1.9-4.1h1.9L104.8,46z"/> <path style="clip-path:url(#SVGID_00000175291173813786939930000009811930514947102609_);fill:#E3282A;" d="M0.5,1.9v33.4h12.6 l15.7,10.4l0-10.4h11.6V1.9H0.5z M36.1,30.9H24.5l0,7.2l-10.1-7.2H4.9V6.1h31.2V30.9z"/> <rect x="9.9" y="14.9" style="clip-path:url(#SVGID_00000175291173813786939930000009811930514947102609_);fill:#ED7C7C;" width="4.3" height="4.3"/> <rect x="14.1" y="14.9" style="clip-path:url(#SVGID_00000175291173813786939930000009811930514947102609_);fill:#E95354;" width="4.3" height="4.3"/> <rect x="18.3" y="14.9" style="clip-path:url(#SVGID_00000175291173813786939930000009811930514947102609_);fill:#ED7C7C;" width="4.3" height="4.3"/> <rect x="22.5" y="14.9" style="clip-path:url(#SVGID_00000175291173813786939930000009811930514947102609_);fill:#E95354;" width="4.3" height="4.3"/> <rect x="26.8" y="14.9" style="clip-path:url(#SVGID_00000175291173813786939930000009811930514947102609_);fill:#ED7C7C;" width="4.3" height="4.3"/> <rect x="14.1" y="19.1" style="clip-path:url(#SVGID_00000175291173813786939930000009811930514947102609_);fill:#E52E2D;" width="4.3" height="4.3"/> <rect x="18.3" y="19.1" style="clip-path:url(#SVGID_00000175291173813786939930000009811930514947102609_);fill:#E95354;" width="4.3" height="4.3"/> <rect x="22.5" y="19.1" style="clip-path:url(#SVGID_00000175291173813786939930000009811930514947102609_);fill:#E52E2D;" width="4.3" height="4.3"/> <rect x="18.3" y="23.4" style="clip-path:url(#SVGID_00000175291173813786939930000009811930514947102609_);fill:#E52E2D;" width="4.3" height="4.3"/> </g> </g> </g> </svg>